<svg xmlns="http://www.w3.org/2000/svg" viewBox="83 417 1876 527">
  <path d="M 1938 565 L 1934 564 L 1927 516 L 1907 489 L 1901 487 L 1902 483 L 1888 476 L 1887 471 L 1875 468 L 1875 464 L 1835 451 L 1835 447 L 1802 445 L 1801 441 L 1790 444 L 1782 439 L 1647 439 L 1645 443 L 1582 454 L 1553 469 L 1549 467 L 1547 473 L 1527 482 L 1513 465 L 1486 449 L 1451 442 L 1421 443 L 1417 439 L 1276 439 L 1274 443 L 1222 447 L 1214 453 L 1204 451 L 1203 455 L 1163 472 L 1149 453 L 1119 443 L 822 444 L 801 454 L 789 467 L 788 491 L 783 500 L 786 509 L 778 563 L 784 590 L 779 593 L 781 599 L 773 616 L 774 648 L 770 647 L 771 730 L 775 742 L 764 752 L 727 753 L 727 746 L 723 747 L 723 716 L 728 710 L 725 706 L 732 685 L 732 660 L 728 660 L 730 651 L 722 635 L 724 630 L 719 627 L 719 619 L 724 617 L 726 551 L 724 533 L 718 525 L 718 479 L 705 450 L 701 452 L 691 443 L 543 442 L 531 449 L 515 447 L 511 442 L 171 441 L 144 453 L 127 476 L 127 500 L 132 515 L 127 519 L 125 551 L 121 552 L 140 605 L 139 619 L 144 629 L 132 653 L 127 654 L 125 687 L 132 720 L 127 724 L 128 735 L 119 753 L 122 756 L 119 771 L 115 772 L 112 813 L 107 817 L 105 873 L 114 895 L 130 909 L 149 918 L 185 922 L 492 920 L 531 907 L 553 918 L 936 923 L 939 919 L 969 915 L 986 906 L 994 894 L 1001 856 L 995 810 L 998 791 L 994 792 L 998 780 L 1084 779 L 1093 832 L 1112 872 L 1121 877 L 1119 880 L 1122 878 L 1158 902 L 1215 916 L 1216 920 L 1410 920 L 1412 916 L 1464 906 L 1489 894 L 1515 871 L 1540 896 L 1544 894 L 1568 906 L 1607 916 L 1687 922 L 1793 917 L 1859 897 L 1905 864 L 1915 845 L 1920 844 L 1918 839 L 1930 809 L 1924 778 L 1919 778 L 1911 761 L 1916 715 L 1898 690 L 1870 675 L 1848 673 L 1846 647 L 1850 642 L 1891 629 L 1931 596 Z" fill="#0039C3"/>
  <path d="M 555 483 L 554 553 L 549 580 L 561 597 L 546 616 L 547 715 L 569 732 L 551 768 L 554 861 L 616 873 L 634 872 L 664 861 L 675 862 L 692 872 L 704 866 L 724 872 L 795 869 L 796 813 L 702 813 L 684 810 L 676 802 L 681 739 L 678 696 L 686 680 L 685 662 L 674 631 L 682 596 L 680 558 L 670 539 L 681 508 L 676 487 L 672 482 L 619 493 L 586 483 Z M 1121 482 L 1013 485 L 978 499 L 961 498 L 922 482 L 831 483 L 823 565 L 847 591 L 823 619 L 815 646 L 815 692 L 820 714 L 817 738 L 829 766 L 829 775 L 817 799 L 818 873 L 827 876 L 855 871 L 894 877 L 922 869 L 954 869 L 949 807 L 941 788 L 949 763 L 949 718 L 941 702 L 960 694 L 1080 696 L 1087 691 L 1093 667 L 1077 658 L 1077 646 L 967 650 L 955 646 L 953 640 L 962 607 L 954 572 L 965 554 L 974 551 L 1035 551 L 1070 543 L 1103 556 L 1114 556 L 1130 522 Z M 171 483 L 175 517 L 170 561 L 189 623 L 190 644 L 187 656 L 171 665 L 165 676 L 189 685 L 194 697 L 190 709 L 170 726 L 145 860 L 193 872 L 306 868 L 371 876 L 393 869 L 466 872 L 520 848 L 525 836 L 514 807 L 514 794 L 524 781 L 528 766 L 524 727 L 500 687 L 486 679 L 459 675 L 453 667 L 458 657 L 492 648 L 512 636 L 532 613 L 528 595 L 512 584 L 513 576 L 524 565 L 528 541 L 496 495 L 480 486 L 439 481 L 280 479 Z M 301 688 L 318 680 L 342 680 L 367 690 L 389 706 L 399 752 L 414 793 L 414 808 L 409 814 L 382 814 L 372 823 L 350 826 L 326 838 L 300 824 L 298 775 L 284 761 L 283 754 L 301 732 Z M 306 521 L 328 513 L 350 518 L 367 533 L 403 537 L 406 553 L 402 576 L 420 605 L 389 641 L 374 647 L 334 646 L 319 642 L 306 632 Z M 1555 515 L 1543 528 L 1537 544 L 1537 582 L 1561 600 L 1547 615 L 1555 633 L 1555 646 L 1533 715 L 1541 750 L 1535 822 L 1543 839 L 1555 848 L 1598 864 L 1628 864 L 1663 854 L 1698 870 L 1740 866 L 1812 868 L 1862 844 L 1885 815 L 1885 805 L 1866 770 L 1873 740 L 1872 724 L 1866 721 L 1775 721 L 1779 739 L 1776 789 L 1770 806 L 1756 821 L 1738 833 L 1716 838 L 1681 833 L 1669 825 L 1668 783 L 1657 767 L 1668 733 L 1669 633 L 1651 625 L 1649 617 L 1666 609 L 1666 551 L 1682 533 L 1696 525 L 1745 522 L 1766 526 L 1774 533 L 1777 553 L 1770 578 L 1775 595 L 1773 608 L 1777 609 L 1785 601 L 1828 600 L 1872 592 L 1874 585 L 1893 569 L 1887 530 L 1872 523 L 1857 502 L 1841 495 L 1797 486 L 1719 482 L 1703 477 L 1594 491 Z M 1196 503 L 1179 518 L 1182 530 L 1175 541 L 1150 559 L 1147 585 L 1155 603 L 1176 624 L 1210 641 L 1222 653 L 1261 665 L 1348 713 L 1366 734 L 1375 760 L 1392 779 L 1371 794 L 1366 812 L 1356 822 L 1333 830 L 1305 831 L 1282 826 L 1265 813 L 1258 794 L 1260 768 L 1256 765 L 1224 763 L 1181 771 L 1162 762 L 1146 762 L 1134 771 L 1131 789 L 1135 811 L 1152 823 L 1146 831 L 1151 843 L 1174 860 L 1198 868 L 1326 879 L 1442 864 L 1468 852 L 1508 818 L 1516 802 L 1510 770 L 1519 759 L 1484 703 L 1472 694 L 1359 649 L 1336 627 L 1314 622 L 1305 606 L 1282 593 L 1273 575 L 1273 558 L 1283 544 L 1310 525 L 1337 520 L 1373 526 L 1395 552 L 1409 558 L 1411 563 L 1406 571 L 1413 576 L 1518 563 L 1520 558 L 1512 536 L 1492 507 L 1475 499 L 1460 481 L 1431 493 L 1397 478 L 1309 475 L 1238 486 Z" fill="#FFFFFF" fill-rule="evenodd"/>
</svg>