<svg xmlns="http://www.w3.org/2000/svg" width="16" height="16" viewBox="0 0 16 16">
  <g fill="none" fill-rule="evenodd" transform="translate(0 2)">
    <rect width="16" height="12" fill="#43458B" rx="2"/>
    <path fill="#FFF" d="M1.34608222,3.96428571 L0,3.96428571 L0,2.03571429 L3,2.03571429 L3,1.92936912 L0.748407485,0.439935198 C1.01503132,0.225756185 1.33772286,0.0785189087 1.69097701,0.023728449 L3,0.88976235 L3,0 L5,0 L5,2.03571429 L5.04567541,2.03571429 L8,0.0814285714 L8,1.12114286 L6.61724704,2.03571429 L8,2.03571429 L8,3.96428571 L5,3.96428571 L5,4.0467773 L7.93422222,5.988 L6.36355556,5.988 L5,5.08603459 L5,6 L3,6 L3,3.96428571 L2.91804341,3.96428571 L0,5.89457143 L0,4.85485714 L1.34608222,3.96428571 Z"/>
    <path fill="#E25950" d="M3,1.93089494 L3,2.03571429 L1.58685848,2.03571429 L0.203232701,1.1205518 C0.333119472,0.855684541 0.519848419,0.623750108 0.747517526,0.440650519 L3,1.93089494 Z M5,1.04896107 L6.58577778,0 L8,0 L8,0.103714286 L5.07951594,2.03571429 L5,2.03571429 L5,1.04896107 Z M2.91992767,3.96428571 L3,3.96428571 L3,4.95103893 L1.41422222,6 L0,6 L0,5.89628571 L2.91992767,3.96428571 Z M6.4128132,3.96428571 L8,5.01428571 L8,6 L7.91911111,6 L5,4.06906493 L5,3.96428571 L6.4128132,3.96428571 Z M8,3.42685714 L4.44444444,3.42685714 L4.44444444,6 L3.55555556,6 L3.55555556,3.42685714 L0,3.42685714 L0,2.57314286 L3.55555556,2.57314286 L3.55555556,0 L4.44444444,0 L4.44444444,2.57314286 L8,2.57314286 L8,3.42685714 Z"/>
    <path fill="#FFF" fill-rule="nonzero" d="M13.5,5 C13.2238576,5 13,4.77614237 13,4.5 C13,4.22385763 13.2238576,4 13.5,4 C13.7761424,4 14,4.22385763 14,4.5 C14,4.77614237 13.7761424,5 13.5,5 Z M13.5,8 C13.2238576,8 13,7.77614237 13,7.5 C13,7.22385763 13.2238576,7 13.5,7 C13.7761424,7 14,7.22385763 14,7.5 C14,7.77614237 13.7761424,8 13.5,8 Z M11.5,3 C11.2238576,3 11,2.77614237 11,2.5 C11,2.22385763 11.2238576,2 11.5,2 C11.7761424,2 12,2.22385763 12,2.5 C12,2.77614237 11.7761424,3 11.5,3 Z M10,6 C9.72385763,6 9.5,5.77614237 9.5,5.5 C9.5,5.22385763 9.72385763,5 10,5 C10.2761424,5 10.5,5.22385763 10.5,5.5 C10.5,5.77614237 10.2761424,6 10,6 Z M12.5,9 C12.7761424,9 13,9.22385763 13,9.5 C13,9.77614237 12.7761424,10 12.5,10 C12.2238576,10 12,9.77614237 12,9.5 C12,9.22385763 12.2238576,9 12.5,9 Z M3.61729652,10.2363208 L3.06084639,10.7668067 C2.96417841,10.858606 2.80820991,10.7814296 2.81714561,10.6457617 L2.87238445,9.86668665 L2.12341071,9.74807878 C1.99343696,9.72776921 1.95444483,9.55310692 2.06329785,9.47674294 L2.68879653,9.03480673 L2.31106031,8.35727953 C2.2452611,8.23948403 2.35330178,8.0997542 2.47921385,8.13956096 L3.20381752,8.36865289 L3.48244875,7.64157034 C3.50260053,7.58436542 3.55664901,7.54609974 3.61729652,7.54609974 C3.67794403,7.54609974 3.73199251,7.58436542 3.75214428,7.64157034 L4.03077551,8.36865289 L4.75537918,8.13956096 C4.88129125,8.0997542 4.98933193,8.23948403 4.92353272,8.35727953 L4.5457965,9.03480673 L5.17129518,9.47674294 C5.2801482,9.55310692 5.24115607,9.72776921 5.11118232,9.74807878 L4.36220858,9.86668665 L4.41744742,10.6457617 C4.42638312,10.7814296 4.27041462,10.858606 4.17374664,10.7668067 L3.61729652,10.2363208 Z"/>
  </g>
</svg>
