<svg width="84" height="24" viewBox="0 0 84 24" fill="none" xmlns="http://www.w3.org/2000/svg">
<path d="M31.0678 19.3605C28.185 19.3605 25.9205 16.7189 26.5555 13.7262C26.9232 12.0125 28.2936 10.6165 30.0066 10.232C31.9368 9.79728 33.7167 10.5747 34.7528 11.954C35.0954 12.4138 35.7388 12.5392 36.2569 12.2968L39.0645 10.976C37.4769 7.60711 33.842 5.40021 29.7559 5.99373C25.6698 6.58725 22.7285 9.79728 22.2939 13.7346C21.7007 19.0679 25.862 23.5904 31.0762 23.5904C34.6108 23.5904 37.6524 21.5089 39.0645 18.5078L36.2569 17.187C35.7305 16.9363 35.0954 17.0784 34.7445 17.5465C33.9005 18.6583 32.5719 19.3689 31.0762 19.3689L31.0678 19.3605Z" fill="black"/>
<path d="M16.8542 22.3114L11.1135 9.78056L5.37294 22.3114C5.17239 22.7544 4.72117 23.0387 4.23652 23.0387H0L9.81 1.60501C10.3281 0.476488 11.9241 0.476488 12.4338 1.60501L22.2438 23.0387H18.0073C17.5143 23.0387 17.0714 22.7544 16.8709 22.3114H16.8542Z" fill="black"/>
<path d="M74.795 5.89342C69.9151 5.89342 65.9543 9.8558 65.9543 14.7377C65.9543 19.6196 69.9151 23.582 74.795 23.582C79.6749 23.582 83.6357 19.6196 83.6357 14.7377C83.6357 9.8558 79.6749 5.89342 74.795 5.89342ZM74.795 19.3605C72.2464 19.3605 70.1741 17.2874 70.1741 14.7377C70.1741 12.1881 72.2464 10.1149 74.795 10.1149C77.3436 10.1149 79.4159 12.1881 79.4159 14.7377C79.4159 17.2874 77.3436 19.3605 74.795 19.3605Z" fill="black"/>
<path d="M49.0166 19.3605C46.1337 19.3605 43.8693 16.7189 44.5043 13.7262C44.872 12.0125 46.2424 10.6165 47.9554 10.232C49.8856 9.79728 51.6655 10.5747 52.7016 11.954C53.0442 12.4138 53.6876 12.5392 54.2057 12.2968L57.0133 10.976C55.4257 7.60711 51.7908 5.40021 47.7047 5.99373C43.6186 6.58725 40.6772 9.79728 40.2427 13.7346C39.6495 19.0679 43.8108 23.5904 49.0249 23.5904C52.5595 23.5904 55.6012 21.5089 57.0133 18.5078L54.2057 17.187C53.6793 16.9363 53.0442 17.0784 52.6932 17.5465C51.8493 18.6583 50.5207 19.3689 49.0249 19.3689L49.0166 19.3605Z" fill="black"/>
<path d="M59.2444 6.60397H63.7149V21.7931C63.7149 22.4869 63.155 23.047 62.4615 23.047H59.2444V6.60397Z" fill="black"/>
<path d="M61.4838 5.14943C62.9052 5.14943 64.0575 3.99669 64.0575 2.57471C64.0575 1.15274 62.9052 0 61.4838 0C60.0624 0 58.9102 1.15274 58.9102 2.57471C58.9102 3.99669 60.0624 5.14943 61.4838 5.14943Z" fill="black"/>
<path d="M16.2525 24L11.1052 12.7733L5.96622 24H16.2525Z" fill="url(#paint0_linear_643_9624)"/>
<defs>
<linearGradient id="paint0_linear_643_9624" x1="11.1052" y1="27.4525" x2="11.1052" y2="9.34588" gradientUnits="userSpaceOnUse">
<stop offset="0.19" stop-color="#91FFF1" stop-opacity="0"/>
<stop offset="0.2" stop-color="#88FFE8" stop-opacity="0.03"/>
<stop offset="0.31" stop-color="#3FFF9B" stop-opacity="0.31"/>
<stop offset="0.38" stop-color="#11FF6B" stop-opacity="0.48"/>
<stop offset="0.42" stop-color="#00FD5B" stop-opacity="0.56"/>
<stop offset="0.46" stop-color="#00E986" stop-opacity="0.67"/>
<stop offset="0.51" stop-color="#00D8AB" stop-opacity="0.77"/>
<stop offset="0.55" stop-color="#00CAC9" stop-opacity="0.85"/>
<stop offset="0.6" stop-color="#00BFE0" stop-opacity="0.92"/>
<stop offset="0.64" stop-color="#00B8F1" stop-opacity="0.96"/>
<stop offset="0.68" stop-color="#00B3FB" stop-opacity="0.99"/>
<stop offset="0.72" stop-color="#00B2FF"/>
</linearGradient>
</defs>
</svg>
