<svg xmlns="http://www.w3.org/2000/svg" viewBox="21.0 21.0 1758.0 464.0">
  <path d="M 25.0 448.5 Q 29.0 458.0 35.0 463.5 Q 41.0 469.0 51.5 474.5 Q 62.0 480.0 77.6 482.0 Q 93.2 484.0 243.0 483.0 Q 392.9 482.0 411.2 476.2 Q 429.5 470.4 439.3 475.2 Q 449.1 480.0 633.6 482.5 Q 818.0 485.0 820.3 482.9 Q 822.6 480.8 836.8 478.9 Q 851.1 476.9 858.5 473.0 Q 866.0 469.0 870.0 463.0 Q 874.0 457.0 877.0 440.5 Q 880.0 424.0 877.5 404.0 Q 875.0 384.0 876.0 371.0 Q 877.0 358.0 876.4 356.2 Q 875.7 354.3 876.8 351.9 Q 877.8 349.5 879.6 348.7 Q 881.3 348.0 918.8 347.5 Q 956.2 347.0 958.6 348.9 Q 961.1 350.8 964.6 373.4 Q 968.0 396.0 977.0 415.5 Q 986.0 435.0 989.2 437.1 Q 992.4 439.2 993.2 441.1 Q 994.0 443.0 996.3 443.1 Q 998.6 443.1 1014.8 454.1 Q 1031.0 465.0 1056.6 471.0 Q 1082.2 477.1 1084.6 479.5 Q 1087.0 482.0 1180.0 482.0 Q 1273.0 482.0 1275.0 479.8 Q 1277.0 477.7 1301.0 473.3 Q 1325.1 468.9 1337.1 463.0 Q 1349.0 457.0 1360.9 447.4 Q 1372.7 437.8 1374.5 438.5 Q 1376.3 439.2 1386.7 449.1 Q 1397.0 459.0 1399.7 458.4 Q 1402.4 457.8 1413.2 463.4 Q 1424.0 469.0 1441.5 473.5 Q 1459.0 478.0 1495.6 481.0 Q 1532.2 484.0 1587.1 481.5 Q 1642.0 479.0 1672.0 470.0 Q 1702.0 461.0 1724.9 444.5 Q 1747.9 428.1 1751.8 420.4 Q 1755.7 412.7 1758.9 410.9 Q 1762.0 409.0 1761.3 405.8 Q 1760.6 402.6 1766.3 389.3 Q 1772.0 376.0 1769.0 361.0 Q 1766.0 346.0 1762.8 344.5 Q 1759.6 342.9 1756.4 335.9 Q 1753.2 329.0 1755.6 310.0 Q 1758.0 291.0 1757.5 287.0 Q 1757.0 283.0 1749.0 272.0 Q 1741.0 261.0 1728.0 254.0 Q 1715.0 247.0 1705.0 245.6 Q 1695.1 244.2 1693.1 232.9 Q 1691.0 221.6 1693.9 218.2 Q 1696.7 214.8 1716.3 208.4 Q 1736.0 202.0 1754.5 186.5 Q 1772.9 171.1 1776.0 156.0 Q 1779.0 141.0 1776.8 139.1 Q 1774.6 137.1 1771.8 115.6 Q 1769.0 94.0 1760.5 82.5 Q 1752.0 71.0 1748.9 68.8 Q 1745.8 66.7 1745.4 64.8 Q 1745.0 63.0 1739.4 60.1 Q 1733.7 57.3 1731.9 54.1 Q 1730.0 51.0 1725.4 49.9 Q 1720.8 48.8 1719.4 46.4 Q 1718.0 44.0 1700.9 38.8 Q 1683.8 33.5 1681.9 30.8 Q 1680.0 28.0 1666.4 27.5 Q 1652.9 27.0 1650.4 25.0 Q 1648.0 23.0 1642.8 23.8 Q 1637.6 24.7 1634.3 22.8 Q 1631.0 21.0 1565.5 21.0 Q 1500.0 21.0 1497.7 23.1 Q 1495.5 25.2 1466.2 30.1 Q 1437.0 35.0 1424.6 41.7 Q 1412.1 48.4 1409.1 48.2 Q 1406.0 48.0 1404.1 51.1 Q 1402.2 54.2 1394.4 57.6 Q 1386.5 60.9 1384.7 60.2 Q 1382.9 59.4 1377.0 52.2 Q 1371.0 45.0 1358.5 37.5 Q 1346.0 30.0 1331.0 27.0 Q 1316.0 24.0 1300.3 24.0 Q 1284.6 24.0 1282.3 22.5 Q 1280.0 21.0 1212.0 21.0 Q 1144.0 21.0 1141.6 23.0 Q 1139.2 25.1 1115.6 26.5 Q 1092.0 28.0 1088.1 30.8 Q 1084.1 33.6 1079.6 32.8 Q 1075.0 32.0 1073.0 34.7 Q 1071.0 37.4 1054.7 44.2 Q 1038.5 50.9 1036.7 50.2 Q 1034.9 49.5 1028.5 41.8 Q 1022.0 34.0 1007.5 29.0 Q 993.0 24.0 851.0 24.5 Q 709.0 25.0 698.5 30.0 Q 688.0 35.0 682.5 41.0 Q 677.0 47.0 676.5 58.6 Q 676.0 70.2 673.5 74.6 Q 671.0 79.0 672.4 85.3 Q 673.9 91.5 669.9 115.8 Q 666.0 140.0 668.7 151.6 Q 671.4 163.2 669.7 165.6 Q 668.0 168.0 668.3 172.0 Q 668.5 175.9 665.3 182.5 Q 662.0 189.0 662.4 202.2 Q 662.8 215.5 660.9 217.8 Q 659.0 220.1 659.0 252.6 Q 659.0 285.1 660.5 298.1 Q 662.1 311.0 657.0 316.0 Q 652.0 320.9 637.0 321.4 Q 622.0 321.9 620.1 320.8 Q 618.3 319.8 616.2 315.6 Q 614.1 311.4 614.0 299.6 Q 614.0 287.8 616.0 284.4 Q 618.0 281.0 617.2 277.2 Q 616.3 273.5 619.2 265.7 Q 622.0 258.0 622.0 245.5 Q 622.0 233.0 620.5 231.1 Q 619.0 229.3 619.5 226.1 Q 620.0 223.0 616.7 216.7 Q 613.4 210.5 613.7 206.7 Q 614.0 203.0 612.0 200.5 Q 610.0 197.9 610.5 195.9 Q 610.9 193.9 613.0 192.5 Q 615.0 191.0 615.5 155.4 Q 616.0 119.8 615.5 115.4 Q 615.0 111.0 612.0 106.4 Q 609.0 101.8 609.0 80.4 Q 609.0 59.0 603.0 45.5 Q 597.0 32.0 593.7 31.7 Q 590.4 31.3 586.1 27.7 Q 581.9 24.0 511.0 24.0 Q 440.1 24.0 435.2 26.8 Q 430.4 29.7 427.4 29.8 Q 424.5 30.0 419.9 29.0 Q 415.3 28.0 413.6 25.5 Q 411.9 23.0 246.9 23.0 Q 82.0 23.0 69.0 29.5 Q 56.0 36.0 49.0 45.5 Q 42.0 55.0 42.0 68.0 Q 42.0 81.0 43.6 86.8 Q 45.2 92.7 43.6 94.8 Q 42.0 97.0 41.0 111.3 Q 40.0 125.7 38.0 127.8 Q 36.0 130.0 44.9 153.7 Q 53.8 177.5 53.4 185.2 Q 53.0 193.0 55.2 198.1 Q 57.4 203.3 52.5 213.5 Q 47.6 223.8 44.8 225.4 Q 42.0 227.0 41.5 229.5 Q 41.0 232.0 40.5 246.5 Q 40.0 261.0 42.8 274.9 Q 45.5 288.8 43.8 291.4 Q 42.0 294.0 42.3 299.4 Q 42.5 304.9 38.3 312.9 Q 34.0 321.0 35.4 323.8 Q 36.7 326.6 35.8 331.3 Q 34.9 336.1 32.5 338.0 Q 30.0 340.0 29.0 358.1 Q 28.0 376.2 25.0 381.1 Q 22.0 386.0 21.5 412.5 Q 21.0 439.0 25.0 448.5 Z M 1408.5 198.6 Q 1405.0 190.2 1411.0 183.1 Q 1417.0 176.0 1406.2 166.8 Q 1395.4 157.5 1395.3 138.1 Q 1395.2 118.6 1397.6 112.3 Q 1400.1 106.0 1406.0 99.6 Q 1411.9 93.2 1430.7 81.7 Q 1449.5 70.3 1502.2 63.7 Q 1554.8 57.1 1561.9 59.6 Q 1569.1 62.0 1605.1 63.5 Q 1641.0 65.0 1663.2 69.5 Q 1685.5 73.9 1692.4 76.8 Q 1699.3 79.7 1708.1 90.9 Q 1717.0 102.0 1723.0 105.0 Q 1729.1 108.1 1730.2 109.8 Q 1731.4 111.6 1733.4 128.2 Q 1735.4 144.8 1726.7 152.9 Q 1718.0 161.0 1715.4 164.7 Q 1712.8 168.4 1694.9 171.7 Q 1677.0 175.0 1655.1 175.5 Q 1633.1 176.0 1631.1 177.5 Q 1629.0 179.1 1626.8 178.8 Q 1624.7 178.6 1623.6 177.0 Q 1622.5 175.5 1622.7 172.7 Q 1623.0 170.0 1620.6 162.5 Q 1618.2 155.0 1621.6 142.9 Q 1625.0 130.9 1623.5 120.9 Q 1622.0 111.0 1617.9 107.5 Q 1613.9 104.0 1603.9 102.0 Q 1594.0 100.0 1570.5 101.5 Q 1547.0 103.0 1541.0 106.5 Q 1535.0 110.0 1527.0 118.5 Q 1519.0 127.0 1518.4 154.3 Q 1517.8 181.5 1509.9 186.8 Q 1502.0 192.0 1503.0 195.5 Q 1504.0 199.0 1511.3 202.4 Q 1518.5 205.9 1519.7 207.8 Q 1520.9 209.7 1520.5 257.2 Q 1520.0 304.7 1515.0 320.4 Q 1510.0 336.0 1515.0 343.3 Q 1519.9 350.6 1520.5 370.8 Q 1521.0 391.0 1527.0 395.0 Q 1533.0 399.0 1551.6 401.0 Q 1570.1 403.0 1578.6 400.9 Q 1587.1 398.9 1595.6 393.5 Q 1604.0 388.0 1611.0 380.5 Q 1618.0 373.0 1621.0 364.9 Q 1624.0 356.9 1625.5 332.5 Q 1627.0 308.1 1625.4 302.3 Q 1623.8 296.4 1624.7 294.3 Q 1625.6 292.1 1668.1 291.6 Q 1710.5 291.1 1713.2 293.1 Q 1715.9 295.2 1716.4 303.0 Q 1717.0 310.7 1713.5 324.4 Q 1710.0 338.0 1719.3 354.7 Q 1728.6 371.3 1728.5 376.4 Q 1728.4 381.6 1716.7 395.7 Q 1704.9 409.9 1682.1 420.9 Q 1659.3 432.0 1624.2 431.0 Q 1589.2 430.0 1568.7 431.9 Q 1548.3 433.9 1532.1 426.4 Q 1516.0 419.0 1500.4 423.5 Q 1484.8 428.0 1468.1 428.0 Q 1451.5 428.0 1430.9 420.0 Q 1410.3 412.1 1405.1 407.9 Q 1400.0 403.7 1396.5 396.2 Q 1393.1 388.7 1395.6 352.4 Q 1398.0 316.0 1394.6 299.6 Q 1391.2 283.3 1401.6 251.6 Q 1412.0 220.0 1412.0 213.5 Q 1412.0 207.0 1408.5 198.6 Z M 1016.7 382.3 Q 1008.5 375.6 1006.8 367.4 Q 1005.1 359.2 1006.8 349.2 Q 1008.5 339.1 1014.5 334.6 Q 1020.6 330.1 1027.4 330.2 Q 1034.2 330.2 1043.1 334.6 Q 1052.0 339.0 1072.9 335.0 Q 1093.8 331.1 1109.2 332.1 Q 1124.6 333.2 1126.7 335.8 Q 1128.8 338.3 1127.9 350.2 Q 1127.0 362.0 1130.5 371.0 Q 1134.0 380.0 1142.0 386.0 Q 1150.0 392.0 1161.0 394.5 Q 1172.0 397.0 1185.5 396.5 Q 1199.0 396.0 1210.0 392.0 Q 1221.0 388.0 1226.0 383.0 Q 1231.0 378.0 1233.3 369.8 Q 1235.7 361.6 1245.3 354.3 Q 1255.0 347.0 1247.5 338.5 Q 1240.1 330.0 1235.5 317.0 Q 1231.0 304.0 1222.0 293.5 Q 1213.0 283.0 1171.0 260.0 Q 1129.0 237.0 1111.4 231.9 Q 1093.9 226.8 1086.9 220.4 Q 1080.0 214.0 1064.4 206.4 Q 1048.8 198.8 1038.4 188.4 Q 1028.1 178.0 1024.1 169.5 Q 1020.2 161.0 1021.7 148.8 Q 1023.2 136.7 1035.6 127.3 Q 1048.0 118.0 1051.0 113.0 Q 1054.0 108.0 1053.1 102.0 Q 1052.3 96.1 1059.3 89.4 Q 1066.3 82.6 1087.8 73.8 Q 1109.2 65.0 1149.3 60.0 Q 1189.4 55.0 1225.0 56.5 Q 1260.5 58.0 1275.7 65.0 Q 1291.0 72.0 1305.7 67.0 Q 1320.5 62.0 1328.2 70.5 Q 1336.0 79.0 1342.8 81.9 Q 1349.5 84.8 1351.6 86.7 Q 1353.7 88.7 1362.4 101.6 Q 1371.2 114.5 1374.5 123.5 Q 1377.7 132.5 1377.1 135.1 Q 1376.6 137.7 1375.3 138.9 Q 1374.1 140.0 1324.6 145.8 Q 1275.1 151.6 1272.9 149.3 Q 1270.7 147.0 1271.9 144.0 Q 1273.0 141.0 1272.5 138.0 Q 1272.0 135.0 1264.9 131.9 Q 1257.9 128.7 1247.4 116.4 Q 1237.0 104.0 1220.0 101.0 Q 1203.0 98.0 1189.0 101.0 Q 1175.0 104.0 1163.0 112.5 Q 1151.0 121.0 1146.0 128.0 Q 1141.0 135.0 1141.0 142.9 Q 1141.0 150.9 1145.0 158.9 Q 1149.0 167.0 1159.9 173.5 Q 1170.7 179.9 1175.9 188.0 Q 1181.0 196.0 1191.5 198.6 Q 1201.9 201.2 1211.0 210.1 Q 1220.0 219.0 1224.0 221.5 Q 1228.0 224.0 1279.7 244.4 Q 1331.4 264.8 1337.7 269.4 Q 1343.9 274.1 1360.1 300.1 Q 1376.3 326.1 1375.9 328.0 Q 1375.6 329.8 1372.3 333.9 Q 1369.0 338.0 1371.4 353.7 Q 1373.8 369.4 1370.0 377.1 Q 1366.2 384.7 1346.7 401.2 Q 1327.2 417.8 1315.2 423.4 Q 1303.2 428.9 1249.1 435.9 Q 1195.0 443.0 1133.8 438.0 Q 1072.5 433.0 1061.1 429.6 Q 1049.8 426.2 1037.7 417.8 Q 1025.7 409.4 1022.8 403.4 Q 1019.9 397.5 1022.5 393.3 Q 1025.0 389.0 1016.7 382.3 Z M 704.0 272.9 Q 702.0 265.8 702.1 241.3 Q 702.1 216.8 705.6 205.4 Q 709.1 194.1 720.5 180.5 Q 732.0 167.0 720.6 153.4 Q 709.2 139.8 712.9 104.1 Q 716.5 68.4 717.6 66.6 Q 718.7 64.8 762.1 63.4 Q 805.4 62.0 821.7 69.0 Q 838.0 76.0 843.6 77.0 Q 849.1 78.0 854.1 78.0 Q 859.0 78.0 874.4 71.6 Q 889.8 65.1 893.8 64.6 Q 897.7 64.0 944.8 63.5 Q 991.9 63.0 994.0 64.1 Q 996.1 65.2 999.9 83.2 Q 1003.7 101.2 995.5 116.8 Q 987.3 132.4 982.4 132.6 Q 977.5 132.8 963.3 126.9 Q 949.0 121.0 932.0 124.5 Q 915.0 128.0 884.5 128.0 Q 854.0 128.0 849.5 130.0 Q 845.0 132.0 840.0 140.0 Q 835.0 148.0 838.9 163.9 Q 842.8 179.7 838.4 196.4 Q 834.0 213.0 835.0 216.0 Q 836.0 219.0 841.6 221.0 Q 847.1 223.0 897.7 221.1 Q 948.3 219.2 950.2 220.8 Q 952.1 222.3 952.5 226.1 Q 953.0 230.0 959.7 234.2 Q 966.3 238.3 967.3 240.5 Q 968.3 242.6 966.0 251.2 Q 963.8 259.9 959.9 263.4 Q 955.9 266.9 898.4 265.9 Q 841.0 265.0 832.0 269.0 Q 823.0 273.0 827.0 281.4 Q 831.0 289.7 831.0 310.2 Q 831.0 330.7 827.0 343.9 Q 823.0 357.0 827.0 365.7 Q 831.0 374.5 833.0 399.2 Q 835.0 424.0 833.8 427.9 Q 832.7 431.9 818.3 432.4 Q 804.0 433.0 791.4 436.9 Q 778.8 440.9 760.4 437.9 Q 742.0 435.0 729.1 437.4 Q 716.2 439.9 711.2 438.1 Q 706.2 436.4 705.1 401.1 Q 704.0 365.8 709.5 354.9 Q 715.0 344.0 715.0 338.6 Q 715.0 333.1 709.6 320.9 Q 704.1 308.7 705.1 294.4 Q 706.0 280.0 704.0 272.9 Z M 452.6 164.6 Q 447.2 156.1 449.6 136.7 Q 452.0 117.2 452.0 93.0 Q 452.0 68.8 452.7 67.1 Q 453.4 65.4 455.1 64.6 Q 456.8 63.8 470.4 63.5 Q 484.0 63.1 496.0 67.0 Q 508.0 71.0 512.5 71.5 Q 517.0 72.0 539.5 67.3 Q 562.0 62.6 564.3 63.3 Q 566.6 64.0 567.9 66.1 Q 569.3 68.1 571.1 78.4 Q 573.0 88.7 568.0 102.9 Q 563.0 117.0 567.9 127.0 Q 572.9 137.0 573.4 155.2 Q 574.0 173.4 570.5 190.2 Q 567.0 207.0 572.5 223.9 Q 578.0 240.8 577.9 247.0 Q 577.8 253.2 574.4 259.6 Q 571.0 266.0 572.0 292.4 Q 573.0 318.7 571.0 343.9 Q 569.0 369.0 573.0 373.0 Q 577.0 377.0 583.0 378.0 Q 589.0 379.0 634.6 379.3 Q 680.3 379.6 681.6 381.8 Q 682.9 384.1 682.5 406.2 Q 682.1 428.3 681.3 430.1 Q 680.5 431.9 646.9 433.9 Q 613.3 436.0 603.6 433.5 Q 594.0 431.0 588.5 433.2 Q 583.0 435.3 575.0 430.7 Q 567.0 426.0 561.1 426.0 Q 555.1 426.0 542.2 430.9 Q 529.2 435.9 518.7 436.4 Q 508.2 437.0 480.1 430.6 Q 452.0 424.1 450.0 381.0 Q 448.1 337.8 457.0 319.9 Q 466.0 302.0 455.4 292.7 Q 444.9 283.4 444.4 237.6 Q 444.0 191.8 451.0 182.4 Q 458.0 173.0 452.6 164.6 Z M 218.1 61.6 Q 345.8 61.0 362.3 63.0 Q 378.7 65.0 388.5 71.2 Q 398.3 77.4 412.0 97.7 Q 425.8 118.1 424.4 129.2 Q 423.0 140.4 417.5 146.2 Q 412.0 152.0 411.5 156.0 Q 411.0 160.0 418.8 165.6 Q 426.6 171.2 428.1 179.4 Q 429.5 187.6 419.9 199.0 Q 410.3 210.4 401.5 215.7 Q 392.7 221.0 376.9 225.0 Q 361.0 229.0 358.0 233.5 Q 355.0 238.0 357.5 242.5 Q 360.0 247.0 372.0 248.5 Q 384.0 250.1 391.3 254.0 Q 398.7 258.0 410.7 277.4 Q 422.8 296.8 424.8 315.7 Q 426.8 334.5 424.4 342.2 Q 421.9 350.0 417.5 355.5 Q 413.0 361.0 413.0 367.5 Q 413.0 374.0 418.0 386.7 Q 423.0 399.5 422.8 401.9 Q 422.7 404.4 419.8 409.1 Q 416.8 413.8 392.3 424.9 Q 367.7 435.9 332.4 434.5 Q 297.0 433.0 286.9 436.4 Q 276.8 439.9 245.4 435.9 Q 214.0 432.0 158.6 434.0 Q 103.3 436.0 82.1 429.8 Q 61.0 423.6 60.4 421.6 Q 59.8 419.5 70.8 359.4 Q 81.8 299.2 91.9 289.6 Q 102.0 280.0 104.0 274.5 Q 106.0 269.0 103.0 262.5 Q 100.0 256.0 91.6 252.8 Q 83.2 249.6 81.8 247.4 Q 80.4 245.3 81.3 242.7 Q 82.1 240.1 84.0 238.1 Q 85.8 236.2 92.4 232.6 Q 99.0 229.0 100.5 224.0 Q 102.0 219.0 101.5 207.5 Q 101.0 196.0 92.1 167.5 Q 83.1 139.0 85.6 117.5 Q 88.0 96.0 86.2 81.6 Q 84.5 67.2 85.4 65.5 Q 86.3 63.8 88.3 63.0 Q 90.3 62.2 218.1 61.6 Z" fill="#0039C3"/>
  <path d="M 192.0 325.5 Q 192.0 329.0 199.0 336.5 Q 206.0 344.0 207.0 367.0 Q 208.0 390.0 219.5 396.5 Q 231.0 403.0 232.5 403.0 Q 234.0 403.0 244.5 397.5 Q 255.0 392.1 266.0 390.5 Q 277.0 389.0 282.2 384.6 Q 287.4 380.2 300.2 380.1 Q 313.0 380.0 315.0 377.5 Q 317.0 375.0 317.0 367.0 Q 317.0 359.0 309.5 339.5 Q 302.0 320.0 297.5 298.5 Q 293.0 277.0 282.9 269.5 Q 272.9 262.0 260.9 257.0 Q 248.9 252.0 236.4 252.0 Q 224.0 252.0 216.5 255.5 Q 209.0 259.0 208.9 279.8 Q 208.8 300.7 200.4 311.3 Q 192.0 322.0 192.0 325.5 Z" fill="#0039C3"/>
  <path d="M 219.5 210.5 Q 225.0 215.0 231.5 217.0 Q 238.0 219.0 259.0 219.5 Q 280.0 220.0 285.0 218.0 Q 290.0 216.0 306.5 198.0 Q 323.0 180.0 314.7 166.6 Q 306.4 153.2 307.7 143.6 Q 309.0 134.0 308.0 124.5 Q 307.0 115.0 289.8 113.0 Q 272.6 111.0 263.8 103.5 Q 255.0 96.0 244.1 94.0 Q 233.1 92.0 223.6 95.5 Q 214.0 99.0 214.0 152.5 Q 214.0 206.0 219.5 210.5 Z" fill="#0039C3"/>
  <path d="M 81.5 429.5 Q 103.0 435.0 158.5 433.0 Q 214.0 431.0 245.5 435.0 Q 277.0 439.0 287.1 435.5 Q 297.3 432.0 332.6 433.5 Q 368.0 435.0 392.5 424.0 Q 417.0 413.0 419.5 408.5 Q 422.0 404.0 422.0 401.5 Q 422.0 399.0 417.1 386.6 Q 412.1 374.3 412.1 368.2 Q 412.0 362.1 416.5 356.0 Q 421.0 350.0 423.5 342.0 Q 426.0 334.0 424.0 315.5 Q 422.0 297.0 410.5 278.0 Q 399.0 259.0 391.5 255.0 Q 384.0 251.0 372.3 249.5 Q 360.6 247.9 357.5 243.0 Q 354.5 238.1 357.1 233.5 Q 359.7 228.9 376.3 224.4 Q 393.0 220.0 400.5 215.5 Q 408.0 211.0 418.5 199.5 Q 429.0 188.0 427.5 179.5 Q 426.0 171.0 418.1 164.9 Q 410.2 158.8 410.8 155.2 Q 411.4 151.7 416.7 146.4 Q 422.0 141.0 423.5 129.5 Q 425.0 118.0 411.0 97.5 Q 397.0 77.0 388.0 71.5 Q 379.0 66.0 362.5 64.0 Q 345.9 62.0 260.0 61.0 Q 174.0 60.0 129.5 62.0 Q 85.0 64.0 87.0 80.0 Q 89.0 96.0 86.5 117.5 Q 84.0 139.0 93.0 167.4 Q 101.9 195.9 102.5 207.4 Q 103.0 218.8 101.4 223.8 Q 99.8 228.9 92.9 233.0 Q 86.0 237.0 84.5 238.5 Q 83.0 240.0 81.5 244.0 Q 80.0 248.0 90.1 251.7 Q 100.3 255.3 101.7 256.8 Q 103.1 258.3 105.0 263.7 Q 106.8 269.1 104.8 274.6 Q 102.8 280.1 92.9 289.0 Q 83.0 298.0 71.5 361.0 Q 60.0 424.0 81.5 429.5 Z M 213.9 99.8 Q 214.8 98.4 226.7 94.8 Q 238.5 91.1 246.8 93.1 Q 255.1 95.2 263.5 102.6 Q 272.0 110.0 287.9 111.5 Q 303.7 113.0 305.7 114.1 Q 307.7 115.2 308.8 124.6 Q 310.0 133.9 308.5 143.4 Q 307.0 153.0 315.1 166.7 Q 323.2 180.4 312.2 193.6 Q 301.1 206.9 295.5 211.9 Q 290.0 217.0 284.8 219.0 Q 279.7 221.0 258.9 220.5 Q 238.1 220.0 231.6 218.0 Q 225.0 215.9 219.3 211.1 Q 213.5 206.2 213.2 153.7 Q 213.0 101.2 213.9 99.8 Z M 198.3 336.2 Q 191.5 329.4 191.3 326.2 Q 191.0 323.1 199.5 312.0 Q 208.0 301.0 208.2 280.3 Q 208.3 259.5 215.7 255.8 Q 223.0 252.1 236.2 251.6 Q 249.3 251.1 261.2 256.1 Q 273.1 261.1 283.5 269.2 Q 293.9 277.2 298.5 298.6 Q 303.0 320.0 310.4 339.4 Q 317.9 358.7 317.9 366.8 Q 317.9 374.8 315.2 377.8 Q 312.5 380.9 299.7 380.9 Q 287.0 381.0 282.0 385.4 Q 276.9 389.9 266.0 391.4 Q 255.0 393.0 244.7 398.4 Q 234.4 403.8 232.6 403.8 Q 230.9 403.9 219.0 396.7 Q 207.2 389.5 206.1 366.3 Q 205.0 343.0 198.3 336.2 Z" fill="#FFFFFF" fill-rule="evenodd"/>
  <path d="M 445.5 237.5 Q 446.0 285.0 456.1 293.9 Q 466.2 302.8 457.6 319.9 Q 449.0 337.0 450.5 381.0 Q 452.0 425.0 480.0 430.5 Q 508.0 436.0 518.5 435.5 Q 529.0 435.0 542.3 430.0 Q 555.6 425.0 561.4 425.1 Q 567.2 425.2 575.1 430.1 Q 583.0 435.0 588.8 432.5 Q 594.6 430.0 596.9 430.0 Q 599.2 430.1 606.1 432.5 Q 613.0 435.0 647.5 433.5 Q 682.0 432.0 682.5 406.0 Q 683.0 380.0 636.0 380.0 Q 589.0 380.0 583.0 378.9 Q 577.1 377.9 572.7 373.3 Q 568.2 368.8 570.1 343.8 Q 572.0 318.9 571.0 292.7 Q 570.0 266.5 573.5 259.7 Q 577.0 253.0 577.0 246.6 Q 577.0 240.1 576.5 236.5 Q 576.0 232.9 571.0 220.0 Q 566.1 207.0 569.6 190.5 Q 573.0 173.9 572.5 155.5 Q 572.0 137.0 567.1 127.0 Q 562.3 117.0 567.1 102.9 Q 572.0 88.9 570.0 78.0 Q 568.0 67.1 566.5 65.0 Q 565.0 63.0 540.9 68.0 Q 516.8 73.0 512.4 72.5 Q 508.0 72.0 496.0 68.0 Q 484.0 64.0 468.5 64.0 Q 453.0 64.0 453.0 90.5 Q 453.0 117.1 452.5 125.6 Q 452.0 134.2 450.0 145.6 Q 448.0 157.0 453.1 165.1 Q 458.2 173.1 451.6 181.6 Q 445.0 190.0 445.5 237.5 Z" fill="#FFFFFF" fill-rule="evenodd"/>
  <path d="M 703.0 241.5 Q 703.0 266.0 705.0 273.1 Q 707.0 280.3 706.0 294.6 Q 705.0 309.0 710.5 321.3 Q 716.0 333.7 715.9 338.9 Q 715.9 344.1 710.4 354.6 Q 705.0 365.0 705.5 401.0 Q 706.0 437.0 711.0 438.0 Q 716.0 439.0 729.1 436.5 Q 742.3 434.1 760.6 437.0 Q 779.0 440.0 791.6 436.0 Q 804.2 432.0 819.1 432.0 Q 834.0 432.0 832.0 403.0 Q 830.0 374.0 826.1 365.5 Q 822.2 357.0 826.1 344.0 Q 830.0 330.9 830.0 310.0 Q 830.0 289.0 826.6 282.2 Q 823.3 275.5 823.4 274.0 Q 823.6 272.6 832.5 268.3 Q 841.4 264.0 899.2 265.0 Q 957.0 266.0 960.0 263.0 Q 963.0 260.0 965.5 250.0 Q 968.0 240.0 960.4 235.1 Q 952.7 230.3 952.4 225.1 Q 952.0 220.0 899.8 222.0 Q 847.5 224.0 842.0 222.0 Q 836.4 220.0 834.8 216.1 Q 833.2 212.3 837.6 196.1 Q 842.0 180.0 838.3 163.6 Q 834.5 147.2 839.2 139.7 Q 843.9 132.3 849.2 129.6 Q 854.4 127.0 884.7 127.0 Q 915.0 127.0 926.5 124.0 Q 938.0 121.0 943.3 120.5 Q 948.6 120.1 963.3 126.0 Q 978.0 132.0 983.0 132.0 Q 988.0 132.0 995.5 116.5 Q 1003.0 101.0 999.0 82.0 Q 995.0 63.0 946.5 64.0 Q 897.9 65.0 894.0 65.5 Q 890.0 66.0 874.3 72.5 Q 858.6 79.0 849.7 78.4 Q 840.8 77.9 823.4 70.4 Q 806.0 63.0 762.0 63.5 Q 718.0 64.0 714.0 102.5 Q 710.0 141.0 721.0 154.2 Q 732.0 167.4 721.0 180.7 Q 710.0 194.0 706.5 205.5 Q 703.0 217.0 703.0 241.5 Z" fill="#FFFFFF" fill-rule="evenodd"/>
  <path d="M 1007.5 367.0 Q 1009.0 375.0 1010.5 377.0 Q 1012.0 379.0 1018.3 383.8 Q 1024.6 388.6 1024.4 389.9 Q 1024.3 391.2 1022.2 394.1 Q 1020.0 397.0 1023.0 403.0 Q 1026.0 409.0 1035.5 416.0 Q 1045.0 423.0 1058.5 427.5 Q 1072.0 432.0 1133.5 437.0 Q 1195.0 442.0 1249.0 435.0 Q 1303.0 428.0 1315.0 422.5 Q 1327.1 417.0 1346.5 400.5 Q 1366.0 384.0 1369.5 377.0 Q 1373.0 370.0 1370.6 354.3 Q 1368.2 338.7 1372.1 333.3 Q 1376.0 327.9 1359.5 301.0 Q 1343.0 274.1 1337.5 270.0 Q 1331.9 266.0 1280.0 245.5 Q 1228.0 225.0 1224.0 222.5 Q 1220.0 220.0 1211.0 211.0 Q 1202.0 202.0 1191.6 199.4 Q 1181.1 196.8 1176.1 188.9 Q 1171.0 181.0 1162.5 176.5 Q 1154.0 172.0 1150.9 169.3 Q 1147.9 166.7 1144.0 158.9 Q 1140.1 151.1 1140.1 143.4 Q 1140.0 135.7 1145.6 127.8 Q 1151.1 119.9 1162.9 111.6 Q 1174.8 103.2 1188.9 100.1 Q 1203.0 97.1 1220.1 100.2 Q 1237.3 103.4 1247.6 115.7 Q 1258.0 128.0 1265.3 131.6 Q 1272.7 135.2 1273.2 138.1 Q 1273.8 141.0 1271.9 144.0 Q 1270.0 147.0 1272.5 149.0 Q 1275.0 151.0 1325.5 145.0 Q 1376.0 139.0 1376.5 136.0 Q 1377.0 133.0 1373.5 123.5 Q 1370.0 114.0 1361.5 101.5 Q 1353.0 89.0 1351.5 87.5 Q 1350.0 86.0 1343.0 82.9 Q 1335.9 79.8 1328.5 70.9 Q 1321.0 62.0 1309.2 66.9 Q 1297.3 71.9 1294.3 72.4 Q 1291.3 72.9 1276.2 65.9 Q 1261.0 59.0 1217.5 57.5 Q 1174.1 56.0 1141.5 61.0 Q 1109.0 66.0 1088.0 74.5 Q 1067.0 83.0 1059.5 90.0 Q 1052.0 97.0 1053.4 102.5 Q 1054.7 108.0 1051.9 112.8 Q 1049.1 117.7 1036.6 126.9 Q 1024.0 136.0 1022.5 148.5 Q 1021.0 161.0 1025.0 169.5 Q 1029.0 178.0 1039.0 188.0 Q 1049.0 198.0 1064.4 205.5 Q 1079.9 212.9 1086.9 219.5 Q 1094.0 226.0 1111.5 231.0 Q 1129.0 236.0 1171.0 259.0 Q 1213.0 282.0 1222.5 293.0 Q 1232.0 304.0 1236.5 317.0 Q 1241.0 330.0 1247.5 337.4 Q 1254.0 344.8 1254.3 346.0 Q 1254.5 347.3 1245.3 354.6 Q 1236.0 362.0 1234.0 370.0 Q 1231.9 377.9 1226.6 383.3 Q 1221.2 388.7 1209.9 392.9 Q 1198.5 397.0 1185.3 397.5 Q 1172.1 398.0 1165.0 396.5 Q 1158.0 395.0 1153.9 393.9 Q 1149.8 392.8 1142.5 387.5 Q 1135.2 382.1 1133.1 379.1 Q 1131.0 376.0 1128.6 369.1 Q 1126.1 362.3 1127.1 349.7 Q 1128.0 337.0 1126.5 335.5 Q 1125.0 334.0 1109.5 333.0 Q 1094.0 332.0 1073.2 335.9 Q 1052.4 339.9 1043.2 335.4 Q 1034.0 331.0 1027.0 331.0 Q 1020.0 331.0 1014.5 335.0 Q 1009.0 339.0 1007.5 349.0 Q 1006.0 359.0 1007.5 367.0 Z" fill="#FFFFFF" fill-rule="evenodd"/>
  <path d="M 1392.0 286.0 Q 1392.0 289.0 1395.5 302.6 Q 1399.0 316.2 1396.5 352.6 Q 1394.0 389.0 1397.5 396.5 Q 1401.0 404.0 1405.5 407.5 Q 1410.1 411.0 1430.5 419.0 Q 1451.0 427.0 1468.0 427.0 Q 1485.0 427.0 1500.6 422.6 Q 1516.1 418.2 1532.1 425.6 Q 1548.0 433.0 1568.6 431.0 Q 1589.2 429.0 1624.6 430.0 Q 1660.0 431.0 1682.5 420.0 Q 1704.9 409.0 1716.5 395.0 Q 1728.0 381.0 1728.0 376.5 Q 1728.0 372.0 1718.6 355.1 Q 1709.3 338.3 1712.6 324.6 Q 1716.0 311.0 1715.5 302.5 Q 1715.0 294.0 1713.0 293.0 Q 1711.0 292.0 1667.5 292.0 Q 1624.0 292.0 1626.0 300.1 Q 1628.0 308.2 1626.5 332.5 Q 1625.0 356.9 1622.0 364.9 Q 1618.9 373.0 1611.6 380.9 Q 1604.3 388.7 1595.7 394.3 Q 1587.1 399.9 1578.5 401.9 Q 1569.8 404.0 1551.6 402.0 Q 1533.5 400.0 1527.1 395.8 Q 1520.8 391.5 1519.9 370.8 Q 1519.0 350.0 1514.2 342.7 Q 1509.3 335.5 1514.2 320.2 Q 1519.0 305.0 1519.5 256.0 Q 1520.0 207.0 1512.3 203.6 Q 1504.6 200.2 1503.2 196.7 Q 1501.7 193.2 1502.3 192.1 Q 1503.0 190.9 1510.0 186.9 Q 1517.0 183.0 1517.7 154.9 Q 1518.3 126.8 1526.6 118.0 Q 1534.9 109.1 1540.9 105.6 Q 1546.9 102.1 1570.5 100.6 Q 1594.1 99.0 1604.0 101.0 Q 1613.8 103.0 1618.1 106.8 Q 1622.4 110.5 1624.2 120.7 Q 1625.9 131.0 1622.5 143.0 Q 1619.0 155.0 1621.4 162.3 Q 1623.8 169.5 1622.9 175.7 Q 1622.0 181.9 1623.0 182.5 Q 1624.0 183.0 1628.8 179.0 Q 1633.5 175.0 1655.3 174.5 Q 1677.0 174.0 1696.0 170.5 Q 1715.0 167.0 1716.2 163.8 Q 1717.4 160.7 1726.2 152.8 Q 1735.0 145.0 1732.5 127.0 Q 1730.0 109.0 1723.5 105.9 Q 1716.9 102.8 1708.4 91.9 Q 1699.9 81.0 1692.9 78.0 Q 1685.9 75.0 1663.5 70.5 Q 1641.0 66.0 1605.1 64.5 Q 1569.2 63.0 1562.1 60.5 Q 1555.0 58.0 1502.5 64.5 Q 1450.0 71.0 1431.0 82.5 Q 1412.0 94.0 1406.5 100.0 Q 1401.0 106.0 1398.5 112.5 Q 1396.0 119.0 1396.0 138.5 Q 1396.0 158.0 1404.9 164.5 Q 1413.9 170.9 1415.5 173.4 Q 1417.0 176.0 1411.0 183.0 Q 1405.0 190.0 1409.0 198.5 Q 1412.9 207.0 1413.0 213.4 Q 1413.0 219.8 1402.5 251.4 Q 1392.0 283.0 1392.0 286.0 Z" fill="#FFFFFF" fill-rule="evenodd"/>
</svg>